<svg xmlns="http://www.w3.org/2000/svg" shape-rendering="geometricPrecision" text-rendering="geometricPrecision" image-rendering="optimizeQuality" fill-rule="evenodd" clip-rule="evenodd" viewBox="0 0 512 467.131"><path d="M143.105 246.603c-6.375-6.566-14.386-17.413-15.491-29.525l-1.226.024c-2.821-.038-5.549-.686-8.102-2.142-4.083-2.326-6.957-6.312-8.898-10.812-4.109-9.438-7.366-34.28 2.976-41.381l-1.937-1.287-.218-2.749c-.398-5-.5-11.049-.601-17.399-.373-23.356-.847-51.649-19.623-57.323l-8.058-2.437 5.304-6.567c15.179-18.743 31.03-35.142 47.016-47.73C152.333 13.039 170.714 3.561 188.701.82c18.488-2.802 36.405 1.444 52.953 14.819 4.883 3.949 9.626 8.69 14.2 14.25 17.657 1.71 32.085 11.218 42.395 24.786 6.151 8.104 10.818 17.684 13.794 27.865 2.966 10.146 4.257 20.941 3.708 31.571-1.001 19.038-7.962 37.633-21.995 51.191 2.468.091 4.796.659 6.851 1.757 7.827 4.193 8.081 13.284 6.022 20.916-2.032 6.376-4.616 13.773-7.057 19.983-2.957 8.393-7.289 9.956-15.658 9.053-.274 13.309-9.5 24.326-17.464 31.711-2.938 2.724-6.299 5.156-9.987 7.304 4.31 9.484 10.709 16.001 18.489 20.7-3.937 5.747-9.141 10.827-15.17 15.136-14.71 10.515-34.127 16.414-52.48 16.414-18.353 0-37.771-5.899-52.481-16.414-5.051-3.609-9.519-7.759-13.153-12.39 5.941-5.633 10.663-13.187 13.69-23.492-4.639-2.68-8.784-5.802-12.253-9.377zm252.573-12.113c32.117 0 61.201 13.021 82.251 34.07C498.978 289.61 512 318.692 512 350.809s-13.022 61.201-34.071 82.251c-21.05 21.049-50.134 34.071-82.251 34.071-32.117 0-61.199-13.022-82.249-34.071a116.558 116.558 0 01-20.564-27.804H5.338c-2.944 0-5.338-2.394-5.338-5.329 0-119.029 78.246-91.213 125-110.065 5.042 6.811 11.338 12.814 18.488 17.925 18.004 12.871 41.61 20.089 63.814 20.089 22.201 0 45.809-7.218 63.813-20.089 9.016-6.445 16.678-14.31 22.173-23.422 1.918.546 3.877 1.046 5.865 1.518 4.2-6.23 8.983-12.029 14.276-17.323 21.05-21.049 50.132-34.07 82.249-34.07zm-21.426 68.116l-.015-2.802c.091-5.917 1.232-9.802 9.548-9.673l21.304.264c4.427-.017 7.376.849 9.397 3.006 2.001 2.133 2.68 5.097 2.633 9.323l.015 26.007c9.235 0 18.474.036 27.708-.004 5.817.08 9.639 1.219 9.515 9.763l-.257 22.055c.022 4.509-.802 7.508-2.857 9.576-2.095 2.108-5.01 2.824-9.163 2.777l-24.946.015-.013 26.275c.013 4.074-.681 6.951-2.635 9.032l-.248.237c-2.021 1.987-4.906 2.787-9.149 2.768l-21.304.265c-8.31.129-9.455-3.751-9.548-9.66.038-9.639.011-19.278.004-28.917l-25.257-.013c-3.998.009-6.822-.72-8.871-2.779-2.055-2.068-2.876-5.069-2.857-9.573L337 338.49c-.125-8.544 3.7-9.681 9.512-9.766 9.243.041 18.486.013 27.729.007l.011-26.125zm21.426-50.627c54.585 0 98.832 44.248 98.832 98.83 0 54.585-44.247 98.832-98.832 98.832-54.582 0-98.83-44.247-98.83-98.832 0-54.582 44.248-98.83 98.83-98.83z"/></svg>